<svg width="96" height="96" viewBox="0 0 96 96" fill="none" xmlns="http://www.w3.org/2000/svg">
  <circle cx="27" cy="29" r="9" fill="white"/>
  <circle cx="43" cy="19" r="8" fill="white"/>
  <circle cx="58" cy="19" r="8" fill="white"/>
  <circle cx="72" cy="30" r="9" fill="white"/>
  <path
    d="M47.9 33C36.2 33 26.7 42.5 26.7 54.2C26.7 64.1 34 72.2 43.5 72.2C47.6 72.2 50.1 69.9 52.2 68C53.9 66.5 55.4 65.2 57.4 65.2C59.6 65.2 61.2 66.6 62.9 68.1C65 70 67.4 72.2 71.1 72.2C79.2 72.2 85.8 65 85.8 56C85.8 43.3 69.9 33 59.1 33C54.7 33 51.1 35 47.9 35C44.6 35 42.3 33 47.9 33Z"
    fill="white"
  />
</svg>
